<?xml version="1.0" encoding="utf-8"?>
<!-- Generator: Adobe Illustrator 16.0.0, SVG Export Plug-In . SVG Version: 6.00 Build 0)  -->
<!DOCTYPE svg PUBLIC "-//W3C//DTD SVG 1.1//EN" "http://www.w3.org/Graphics/SVG/1.1/DTD/svg11.dtd">
<svg version="1.1" id="bcd903a6-af0e-4c78-94ae-0146d121bb13"
	 xmlns="http://www.w3.org/2000/svg" xmlns:xlink="http://www.w3.org/1999/xlink" x="0px" y="0px" width="795.309px"
	 height="524.878px" viewBox="0 0 795.309 524.878" enable-background="new 0 0 795.309 524.878" xml:space="preserve">
<path fill="#3F3D56" d="M539.247,37.988c-0.842-3.304-3.58-5.776-6.436-7.639c-2.855-1.862-5.998-3.359-8.436-5.743
	c-2.439-2.383-4.078-6.006-2.947-9.222c1.377-3.909,5.961-5.471,9.969-6.524c-36.68-3.943-73.539-6-110.43-6.161
	c-2.178-2.953-6.336-3.581-9.289-1.403c-1.703,1.256-2.705,3.248-2.699,5.364v118.563h13.32V52.393
	c31.643,0.077,63.285,0.153,94.93,0.23c5.123,0.012,10.453-0.021,15.059-2.264C536.895,48.115,540.512,42.953,539.247,37.988z"/>
<path fill="#FFB4A2" d="M612.801,250.449v-39.965h30.641c22.807,0,41.297-18.489,41.297-41.297v0l0,0H451.608
	c0-10.3,8.35-18.65,18.65-18.65h162.525v-4.637c0-15.833-10.961-28.668-24.48-28.668H405.749c-31.198,0-59.7,20.094-74.402,51.955
	h-32.62c-2.768,0-5.427,1.077-7.416,3.003l-20.627,19.982c-4.228,4.095-4.335,10.842-0.24,15.07c2.008,2.073,4.77,3.242,7.655,3.242
	h25.637v39.965H185.962c-3.044,0-5.943,1.302-7.966,3.577l-23.683,26.643c-3.911,4.399-3.514,11.137,0.885,15.047
	c1.951,1.733,4.47,2.691,7.081,2.691h73.246c3.673,0,7.087,1.892,9.035,5.006l12.853,20.551c3.121,4.99,1.606,11.566-3.385,14.688
	c-1.458,0.912-3.114,1.457-4.829,1.59L90.336,352.531c-3.942,0.305-7.391,2.768-8.96,6.396L47.735,436.72
	c-2.336,5.402,0.149,11.676,5.552,14.012c1.335,0.578,2.775,0.877,4.23,0.877h530.813c13.002,0.004,25.979-1.18,38.766-3.535
	c94.768-17.486,162.885-101.256,162.885-197.625l0,0H612.801z M343.701,210.484h229.135v39.965H343.701V210.484z M676.747,295.744
	c0,23.543-19.086,42.629-42.631,42.629l0,0H290.415l0,0c0-23.543,19.086-42.629,42.629-42.629H676.747L676.747,295.744z"/>
<path fill="#3F3D56" d="M620.795,317.058H335.709c-3.678,0.004-6.657,2.984-6.661,6.66v15.986h298.408v-15.986
	C627.452,320.042,624.471,317.062,620.795,317.058z M391.66,319.722h31.438v17.318H391.66V319.722z M388.996,337.041h-31.438
	v-17.318h31.438V337.041z M425.762,319.722H457.2v17.318h-31.438V319.722z M459.864,319.722h31.436v17.318h-31.436V319.722z
	 M493.965,319.722h31.438v17.318h-31.438V319.722z M528.067,319.722h31.438v17.318h-31.438V319.722z M562.168,319.722h31.438v17.318
	h-31.438V319.722z M331.712,323.718c0.003-2.205,1.79-3.994,3.997-3.996h19.185v17.318h-23.182V323.718z M624.792,337.041H596.27
	v-17.318h24.525c2.205,0.002,3.994,1.791,3.996,3.996V337.041z"/>
<rect x="584.827" y="129.221" fill="#FFB4A2" width="17.316" height="71.938"/>
<path fill="#CCCCCC" d="M283.754,455.605H3.997c-2.208,0.004-4-1.781-4.005-3.988c-0.005-2.207,1.781-4,3.988-4.006
	c0.006,0,0.011,0,0.017,0h279.757c2.207-0.004,4,1.781,4.005,3.988s-1.781,4-3.988,4.006
	C283.765,455.605,283.759,455.605,283.754,455.605z"/>
<path fill="#CCCCCC" d="M159.861,479.583H43.962c-2.208,0.004-4-1.781-4.005-3.988c-0.005-2.207,1.78-4,3.988-4.004
	c0.005,0,0.011,0,0.017,0h115.899c2.207,0.004,3.993,1.797,3.988,4.004C163.845,477.796,162.062,479.58,159.861,479.583z"/>
<path fill="#CCCCCC" d="M671.417,455.605H391.66c-2.207,0.004-4-1.781-4.005-3.988s1.78-4,3.987-4.006c0.006,0,0.012,0,0.018,0
	h279.756c2.207-0.004,4.002,1.781,4.006,3.988s-1.781,4-3.988,4.006C671.428,455.605,671.422,455.605,671.417,455.605z"/>
<path fill="#CCCCCC" d="M499.567,479.583H219.809c-2.207,0.004-4-1.781-4.005-3.988s1.781-4,3.988-4.004c0.006,0,0.012,0,0.017,0
	h279.758c2.207-0.006,4,1.779,4.004,3.986c0.006,2.209-1.779,4.002-3.986,4.006C499.579,479.583,499.573,479.583,499.567,479.583z"
	/>
<path fill="#CCCCCC" d="M283.754,500.898H3.997c-2.208-0.006-3.991-1.801-3.984-4.008c0.007-2.197,1.787-3.979,3.984-3.984h279.757
	c2.207,0.006,3.991,1.801,3.984,4.008C287.731,499.113,285.951,500.892,283.754,500.898z"/>
<path fill="#CCCCCC" d="M451.608,524.878H335.709c-2.208-0.006-3.993-1.799-3.988-4.006c0.005-2.201,1.787-3.982,3.988-3.988
	h115.899c2.207,0.006,3.992,1.799,3.988,4.006C455.592,523.089,453.809,524.873,451.608,524.878z"/>
<path fill="#CCCCCC" d="M201.159,524.878H85.259c-2.207,0.004-4-1.781-4.005-3.988c-0.005-2.207,1.781-4,3.988-4.006
	c0.006,0,0.011,0,0.017,0h115.899c2.207,0.006,3.993,1.799,3.988,4.006C205.142,523.089,203.359,524.873,201.159,524.878z"/>
<path fill="#CCCCCC" d="M671.417,500.898H391.66c-2.207-0.004-3.993-1.797-3.988-4.004c0.005-2.201,1.787-3.984,3.988-3.988h279.756
	c2.207,0.006,3.992,1.801,3.984,4.008C675.395,499.113,673.616,500.892,671.417,500.898z"/>
<path fill="#CCCCCC" d="M791.313,524.878H511.555c-2.207-0.006-3.992-1.799-3.986-4.006c0.004-2.201,1.787-3.982,3.986-3.988
	h279.758c2.207,0.006,3.992,1.799,3.988,4.006C795.297,523.089,793.514,524.873,791.313,524.878z"/>
</svg>
